<?xml version="1.0" standalone="no"?>
<!DOCTYPE svg PUBLIC "-//W3C//DTD SVG 20010904//EN"
 "http://www.w3.org/TR/2001/REC-SVG-20010904/DTD/svg10.dtd">
<svg version="1.0" xmlns="http://www.w3.org/2000/svg"
 width="225.000000pt" height="225.000000pt" viewBox="0 0 225.000000 225.000000"
 preserveAspectRatio="xMidYMid meet">

<g transform="translate(0.000000,225.000000) scale(0.100000,-0.100000)"
fill="#000000" stroke="none">
<path d="M740 1634 c-19 -8 -46 -31 -60 -51 -24 -34 -25 -45 -29 -195 -3 -154
-4 -159 -27 -177 -14 -11 -42 -22 -64 -26 l-40 -7 0 -68 0 -68 40 -7 c22 -4
51 -16 65 -27 24 -19 25 -22 25 -149 0 -145 11 -203 44 -242 32 -37 66 -47
162 -47 l84 0 0 69 0 69 -55 4 c-31 3 -61 10 -68 17 -8 8 -14 64 -17 166 -5
145 -6 155 -29 179 -14 14 -30 26 -38 26 -7 0 -13 5 -13 10 0 6 6 10 13 10 8
0 24 12 38 26 23 24 24 34 29 174 6 173 9 180 89 188 l51 5 0 68 0 69 -82 -1
c-49 0 -97 -6 -118 -15z"/>
<path d="M1330 1580 l0 -70 43 0 c80 0 85 -9 89 -177 3 -166 14 -196 72 -211
l31 -8 -32 -11 c-57 -20 -67 -50 -73 -215 -3 -94 -9 -151 -17 -159 -6 -6 -35
-14 -62 -17 l-51 -5 0 -68 0 -69 83 0 c92 0 137 16 171 63 19 25 22 47 26 194
6 185 5 183 88 206 l42 11 0 66 0 66 -45 12 c-81 21 -85 31 -85 195 -1 225
-31 267 -192 267 l-88 0 0 -70z"/>
</g>
</svg>
